<svg xmlns="http://www.w3.org/2000/svg" width="1024" height="1024" viewBox="0 0 1024 1024"><g><defs><filter id="goo15" x="-30%" y="-30%" width="160%" height="160%" color-interpolation-filters="sRGB"><feGaussianBlur in="SourceGraphic" stdDeviation="16"/><feComponentTransfer><feFuncA type="linear" slope="30" intercept="-14.5"/></feComponentTransfer></filter><mask id="eye16" maskUnits="userSpaceOnUse" x="-600" y="-600" width="1200" height="1200"><rect x="-600" y="-600" width="1200" height="1200" fill="#fff"/><circle cx="222" cy="-62" r="11" fill="#000"/></mask></defs><g transform="translate(535 625) rotate(-22)" mask="url(#eye16)"><g filter="url(#goo15)" fill="#ffffff"><path d="M330 -22 C312 -44 284 -54 262 -52 C248 -84 204 -104 150 -106 C40 -112 -80 -80 -170 -40 C-230 -14 -290 -20 -350 -40 Q-374 -46 -374 -22 C-368 22 -320 52 -250 54 C-160 58 -80 96 20 96 C130 96 230 60 266 16 C290 2 312 -6 326 -10 Q336 -14 330 -22 Z"/><path d="M160 -84 C140 -170 130 -226 80 -236 L-120 -160 C-130 -110 -100 -80 -150 -40 C-60 -70 60 -84 160 -84 Z" stroke="#ffffff" stroke-width="10" stroke-linejoin="round"/><path d="M130 -209.4 Q72.4 -417.9 -15.9 -489.9 Q-18.6 -411.6 34.2 -202.7 Z" stroke="#ffffff" stroke-width="10" stroke-linejoin="round"/><path d="M33.1 -190.5 Q-84.8 -345.5 -182.8 -374.5 Q-160.6 -308.6 -46.8 -151.6 Z" stroke="#ffffff" stroke-width="10" stroke-linejoin="round"/><path d="M-70.4 -170.2 Q-218.8 -259.5 -308.8 -249.2 Q-270.7 -201.9 -125 -109.6 Z" stroke="#ffffff" stroke-width="10" stroke-linejoin="round"/></g></g></g></svg>
